<?xml version="1.0" encoding="utf-8"?>
<COLLADA xmlns="http://www.collada.org/2005/11/COLLADASchema" version="1.4.1" xmlns:xsi="http://www.w3.org/2001/XMLSchema-instance">
  <asset>
    <contributor>
      <author>Blender User</author>
      <authoring_tool>Blender 3.6.0 commit date:2023-06-27, commit time:08:08, hash:c7fc78b81ecb</authoring_tool>
    </contributor>
    <created>2026-10-06T03:53:16</created>
    <modified>2026-10-06T03:53:16</modified>
    <unit name="meter" meter="1"/>
    <up_axis>Z_UP</up_axis>
  </asset>
  <library_effects>
    <effect id="Hull-effect">
      <profile_COMMON>
        <technique sid="common">
          <lambert>
            <emission>
              <color sid="emission">0 0 0 1</color>
            </emission>
            <diffuse>
              <color sid="diffuse">0.101961 0.101961 0.101961 1</color>
            </diffuse>
            <index_of_refraction>
              <float sid="ior">1.45</float>
            </index_of_refraction>
          </lambert>
        </technique>
      </profile_COMMON>
    </effect>
  </library_effects>
  <library_images/>
  <library_materials>
    <material id="Hull-material" name="Hull">
      <instance_effect url="#Hull-effect"/>
    </material>
  </library_materials>
  <library_geometries>
    <geometry id="meshId2_name-mesh" name="meshId2_name">
      <mesh>
        <source id="meshId2_name-mesh-positions">
          <float_array id="meshId2_name-mesh-positions-array" count="1311">-80.22281 169.0034 -54.53364 -83.81918 427.3491 -45.23917 -87.36604 -43.62532 -49.55012 0.7862939 -351.4945 -56.18574 -73.46528 -219.2535 -37.93547 -81.99656 427.4838 -9.493289 -46.15124 -345.488 -14.8281 -91.45188 230.2142 32.98861 -103.2394 -232.2978 52.78631 -83.3676 -319.8263 55.32131 2.675829 -437.291 -38.94461 -53.87181 -384.4472 57.80709 -102.2838 -43.42694 -17.05906 -112.7364 -89.25547 48.2163 3.262275 -422.898 -48.31496 1.065648 -451.4865 -9.672946 0.1647561 -462.625 56.53121 0.6253175 445.2088 -57.47158 -84.01077 427.9665 -46.95765 0.6071535 446.745 -58.32225 -82.78784 426.544 -7.248525 -1.075435 445.451 29.87127 -64.11338 434.8812 27.0559 -91.91076 229.9073 33.68498 -42.73292 439.7169 28.28863 -108.4657 15.15259 43.22925 -112.4394 -102.1166 48.20236 -104.7697 -228.3386 52.33666 -82.5502 -187.7875 59.31568 0.6078591 -462.5867 57.01681 -58.90045 -383.1464 60.98216 -84.05741 -320.762 54.82744 -4.286375 445.3097 30.06433 -52.98717 28.06669 56.44708 45.6056 -405.1809 62.3483 -41.26758 -204.5236 69.0384 -15.89804 28.11585 -14.54384 -77.55865 24.92169 52.03548 -61.2443 24.25707 -14.54389 -68.35348 14.77729 -14.54388 -60.61943 -102.0675 -6.988732 -69.02993 -111.863 -6.988752 -67.9167 -199.8981 64.2184 -78.69628 -101.8423 60.94079 0.4440971 -96.50691 66.96435 -51.7074 -74.11788 62.70594 -83.79438 -190.7782 58.92673 -84.57231 -205.5527 58.12435 -83.25353 -205.5869 47.36481 0.6071594 -233.2577 44.90053 -33.072 -242.2808 2.85116 -68.66263 -231.2503 2.743206 -77.52984 -220.1965 45.9625 -54.72063 -98.67874 64.11873 -63.05717 -102.6721 -7.004539 -88.72336 -76.62417 52.6114 -83.27656 -78.06433 33.8367 -84.83088 -81.57244 33.34765 -73.88481 -85.23141 -14.87525 -42.26868 28.02679 56.02954 -77.62728 25.24593 52.08659 -62.13646 26.70023 -14.57491 -37.02003 -205.5642 65.91181 -53.98681 -205.5965 47.57492 -84.56401 -205.5416 58.06623 0.6071563 -205.6284 40.49496 -83.25353 -205.5869 47.36481 -29.64009 -232.9642 -6.98872 -65.39598 -221.6443 -6.988743 -77.48979 -220.1174 45.9006 -63.42887 -227.8637 4.814841 -83.29765 -205.6099 48.32445 -77.46809 -220.2606 46.46168 -36.23364 -232.3945 45.52787 0.6071571 -205.615 40.94533 -32.31785 -238.4936 2.863459 -29.67294 -232.9447 -6.980295 -65.06507 -221.6661 -6.931966 -67.86777 -227.3362 2.713053 -32.28421 -238.5162 2.839659 -67.81511 -227.3778 2.651033 -68.57687 -231.1422 2.651269 -33.20009 -242.2015 2.828 -65.99554 -221.6108 -7.177929 -54.27862 -74.30453 62.535 -53.70779 -74.11861 58.97265 -71.19564 -79.94924 -14.54471 -57.48772 -87.63071 -14.54669 -71.19303 -80.14514 -14.54642 -83.59334 -76.69229 33.80321 -83.47315 -79.38601 33.8097 -49.03578 -84.99787 33.44948 -83.65404 -76.74557 34.04442 -53.71475 -76.43344 58.58147 -88.65416 -76.27614 53.01628 -59.5929 -72.7914 56.78164 -83.57047 -28.2152 53.15132 -84.13372 -59.92232 56.81924 -83.92047 -60.72435 53.47865 -81.41341 -190.2237 61.3589 -40.15314 -205.6617 66.17923 -9.299011 -205.6015 71.02797 -84.34131 -205.5258 58.05421 -67.33863 -199.9105 61.88129 -38.27819 -205.4971 66.78677 0.571323 -205.2031 68.53543 -83.57633 -190.7476 61.74483 -65.38537 -101.8852 -7.007674 -82.5469 -102.3219 59.90814 -68.35348 14.77729 -14.54388 -61.66815 23.81585 -14.54385 -77.55468 24.91785 51.98801 -84.82656 15.89967 51.88924 -82.03949 -187.1559 55.26493 -86.31245 -110.5171 58.82437 -85.77298 -28.54858 52.86026 -68.35348 14.77729 -14.54388 -84.82656 15.89967 51.88924 -87.34143 -53.48303 56.54099 -86.50111 -53.75699 52.6218 -79.25307 -64.625 54.47851 -84.82656 15.89967 51.88924 -77.56721 -66.57486 57.20048 -81.05487 -103.6692 60.2785 -88.34487 -76.72274 52.18248 5.392528 -75.81408 65.40356 7.62019 -75.63279 61.10474 4.928162 -87.63139 33.3929 0.6071509 -96.68467 -6.98874 72.40995 -79.94924 -14.54469 0.6071558 -92.85792 -14.54634 5.702439 -96.61154 66.84973 28.7539 -233.7291 -6.988714 0.5472769 -76.60913 62.69381 85.55986 427.3413 -45.59524 88.49625 -6.080397 -53.12077 -0.07947224 -423.7168 -48.403 0.5454396 -236.7807 -56.86872 74.67958 -219.2535 -37.93547 -1.461516 -437.291 -38.94461 94.33657 277.1524 -22.29985 81.80086 428.0075 -4.411549 103.4982 -43.42704 -17.05901 47.36553 -345.4881 -14.8281 93.01518 229.2972 33.05437 84.58192 -319.8263 55.32131 104.4537 -232.2978 52.78632 55.0861 -384.4472 57.80709 114.1692 -85.13173 48.02816 0.148663 -451.4865 -9.67295 1.049556 -462.625 56.53121 0.5889965 445.2088 -57.47158 85.2251 427.9665 -46.95765 84.00214 426.544 -7.248476 65.90227 436.9702 27.40353 38.71678 441.2436 28.69802 93.44496 226.0394 33.78464 64.69621 432.1789 26.23768 109.68 15.15276 43.22922 113.6537 -102.1165 48.20236 83.76451 -187.7875 59.31568 105.984 -228.3386 52.33666 85.27173 -320.762 54.82744 64.02515 -371.3925 56.32897 77.11343 26.52779 53.45064 61.20635 25.33444 -14.54389 69.5678 14.77729 -14.54388 61.83374 -102.0675 -6.988736 70.24425 -111.8629 -6.988762 61.08805 -202.7421 62.44102 14.8587 -75.62019 65.02131 61.96718 -72.64002 61.58332 79.91059 -101.8423 60.9408 85.00869 -190.7782 58.92673 84.46784 -205.5869 47.36481 85.78662 -205.5527 58.12435 78.74415 -220.1965 45.9625 33.02726 -242.8247 2.863498 82.48661 -102.9489 60.8443 65.09027 -99.41538 -7.040369 84.49092 -78.06433 33.83669 89.93764 -76.62417 52.61141 85.4215 -80.48969 33.41064 74.05573 -83.35359 -14.79308 20.10256 28.75717 57.55349 63.02207 24.6502 -14.55466 78.84159 25.24593 52.08659 25.4927 -205.5606 67.35388 85.77832 -205.5416 58.06623 55.20113 -205.5965 47.57492 84.46784 -205.5869 47.36481 66.63844 -221.3178 -6.988741 64.6432 -227.8637 4.814842 78.7041 -220.1174 45.9006 84.51196 -205.6099 48.32445 78.6824 -220.2606 46.46169 39.90936 -231.9175 45.80176 31.69426 -239.1236 2.928648 28.92391 -233.7752 -7.025977 33.04577 -242.796 2.878875 31.86962 -239.1785 2.886536 67.20985 -221.6108 -7.177929 58.70206 -87.63071 -14.54669 72.40734 -80.14514 -14.54642 84.56471 -80.4103 36.18107 84.79248 -76.66942 33.80569 45.23736 -76.46112 59.9047 84.86901 -76.72352 34.04649 60.80722 -72.7914 56.78164 84.78478 -28.2152 53.15132 75.88251 -69.9877 55.93327 72.76268 -70.81667 59.6005 80.60419 -187.2778 60.89075 36.07985 -206.1586 66.95569 58.33296 -203.7893 65.93875 85.55563 -205.5258 58.05421 68.55294 -199.9105 61.88129 39.49251 -205.4971 66.78677 0.6429909 -205.2031 68.53543 84.79065 -190.7476 61.74483 66.5997 -101.8852 -7.007675 83.76122 -102.3219 59.90814 69.5678 14.77729 -14.54388 86.04088 15.89967 51.88924 78.769 24.91785 51.98801 62.88247 23.81585 -14.54385 83.25381 -187.1559 55.26493 87.52677 -110.5171 58.82437 86.98731 -28.54858 52.86026 86.04088 15.89967 51.88924 69.5678 14.77729 -14.54388 88.55576 -53.48302 56.541 89.86848 -76.27614 53.01629 87.71543 -53.757 52.6218 80.46738 -64.625 54.47851 86.04088 15.89967 51.88924 80.96237 -64.67881 57.61839 0.2354512 -391.9412 -54.97609 68.99822 -227.1047 2.701416 66.21878 -221.501 -6.988708 69.3786 -228.9861 3.048242 89.55919 -76.72274 52.18248 69.75995 -230.8686 2.724789 0.6670371 -76.60913 62.69381 -34.11892 441.6457 -54.51489 -63.47492 432.1987 26.43231 -63.47492 432.1987 26.43231 35.33321 441.6457 -54.51489 64.68924 432.1987 26.43231 -76.0172 28.13117 23.49805 77.95882 -34.12734 -16.61862 -76.74483 -34.12734 -16.61862 77.22693 28.13114 -16.6186 79.04586 28.09784 50.00078 77.29776 14.60465 20.37043 -78.20969 28.13792 52.79681 83.55586 15.42613 46.4751 79.29411 28.10905 51.21902 -77.80398 28.09707 49.99803 -76.77873 15.67948 48.21617 -51.72155 28.13116 53.24504 30.87556 28.13116 55.03822 78.28672 15.27609 48.51185 -76.0208 14.60448 20.37042 77.97467 -34.12733 -16.61862 77.29412 14.60389 20.3704 -76.76181 -33.41246 19.71112 77.29412 28.13116 23.49805 -76.0172 28.13117 -16.6186 77.96828 -33.50148 19.41525 -76.75449 -33.24895 19.86005 -81.62227 15.42294 45.95473 80.1602 28.13119 49.62705 77.29412 14.6065 20.37034 -78.95518 28.13117 49.62342 -76.0172 14.60694 20.37033 77.96305 -33.41248 19.71106 -76.77278 -34.12733 -16.61862 -75.97154 28.13114 -16.61859 77.29412 28.13117 -16.6186 77.29412 28.13116 -16.6186 -76.0172 14.60389 20.3704 78.46371 -29.45605 13.91241 82.81843 -29.04736 30.38568 86.07621 -11.84267 46.70431 84.62403 17.45803 45.04722 76.14001 17.2586 13.97156 -77.25964 -28.00519 14.81399 -81.61437 -27.5965 31.28726 -84.87215 -10.3918 47.6059 -83.41999 18.9089 45.94881 -74.93595 18.70947 14.87313 -30.65326 -95.93934 63.20898 76.96733 -158.1978 -8.447845 -77.7464 -157.4738 27.93356 76.26065 -95.93934 -8.447831 76.30627 -109.4658 28.54121 -79.20117 -95.93257 60.96758 82.56436 -108.6444 54.64588 78.30263 -95.96144 59.38979 -79.37495 -95.95381 58.11977 -77.77017 -108.391 56.38698 78.55414 -95.94982 58.10354 77.29523 -108.7944 56.68264 -76.9826 -95.93934 -8.447814 -77.01229 -109.466 28.54119 76.98318 -158.1978 -8.44784 -77.00868 -109.4666 28.54118 -77.75329 -157.483 27.88189 76.30263 -95.93933 31.66882 -77.00868 -95.93933 -8.447831 76.97664 -157.5106 27.69855 -82.61375 -108.6475 54.12553 79.16872 -95.93935 57.79782 51.94406 -95.93934 61.41581 -77.00868 -95.93933 31.66882 76.30263 -109.4633 28.5411 -79.94667 -95.93935 57.79419 -77.00868 -109.4642 28.54112 76.97156 -157.483 27.88183 -77.76426 -158.1978 -8.447845 76.30263 -109.4666 28.54118 76.30263 -95.93933 -8.447831 -77.73632 -158.1978 -8.447845 78.10358 -153.5265 22.08319 82.45829 -153.1179 38.55644 85.71607 -135.9132 54.87509 84.2639 -106.6125 53.218 75.77987 -106.8119 22.14233 -77.09479 -153.4744 22.98477 -81.46298 -153.2522 39.458 -85.45304 -136.2024 55.77666 -85.25434 -106.8664 54.11957 -76.76955 -106.7031 23.04392 0.594846 234.9735 -57.54191 0.6928344 416.0734 -96.91846 0.6237055 416.2251 -96.59791 0.6236993 421.3956 -97.84081 1.738755 421.3197 -98.23329 -0.4426404 421.3222 -98.23381 -8.318581 415.9052 -83.18673 0.806026 417.4505 -97.4352 2.711852 407.4397 -97.73252 2.094898 409.2315 -92.40878 -14.48446 421.7561 -94.59645 1.682134 408.5853 -92.40425 1.452253 408.5503 -85.26951 0.5610505 417.4941 -97.23243 -14.18079 421.8338 -93.84748 -13.93579 421.0668 -88.43877 -2.305677 410.8048 -82.52684 16.84892 413.254 -95.51911 0.5039612 417.4277 -97.54122 -2.52286 407.8251 -95.94017 2.619188 407.9694 -98.27909 11.33636 423.3561 -87.15351 8.861267 405.2498 -100.6216 11.83283 423.1426 -87.7593 16.15018 420.7148 -90.07633 13.47269 407.1935 -99.3244 -6.658962 409.9986 -110.6621 -2.842849 408.505 -95.78788 5.019244 417.8563 -112.7371 -8.442375 405.5514 -99.2186 4.218983 417.7531 -112.8286 -0.3434316 415.4145 -114.7306 -9.295953 406.1271 -104.2849 0.2190918 418.0399 -95.92785 2.326501 417.7076 -97.4719 1.44737 407.6415 -96.71475 -0.6464458 417.4476 -98.6775 1.814194 408.1898 -94.16513 -1.156985 407.929 -95.37489 -0.6341549 389.4445 -92.17302 0.6236943 390.4126 -87.6743 0.6236929 399.8107 -90.9579 1.880098 399.5198 -94.33676 1.892771 389.4005 -91.74559 0.6236951 378.2381 -58.43078 -0.008546948 380.4456 -69.99225 -0.008547961 388.0612 -71.62949 0.6236926 385.6242 -58.41157 1.255934 388.0612 -71.62949 1.255936 380.4456 -69.99225 -0.386332 379.9163 -58.2568 -0.386335 387.7059 -58.25506 1.63372 387.7059 -58.25506 1.633723 379.9163 -58.2568 -0.8488929 379.3446 -58.2199 2.096312 379.3445 -58.22023 -0.8488965 388.2776 -58.21791 2.096308 388.2776 -58.21824 -1.31148 378.7727 -57.86691 2.558874 378.7727 -57.86691 -1.311484 388.8492 -57.86468 -1.31148 378.7727 -57.86691 2.55887 388.8492 -57.86468 -1.311484 388.8492 -57.86468 2.558874 378.7727 -57.86691 2.55887 388.8492 -57.86468 -0.6457313 399.5973 -93.9325 0.5806728 434.9534 -90.66409 0.6611312 450.4815 -90.61392 1.097277 439.0121 -58.27509 0.5615199 434.8768 -90.69815 0.5658724 453.1649 -88.27111 0.5966055 436.3669 -66.2221 0.6290653 439.6479 -66.042 1.288261 449.4389 -65.93758 0.4807354 439.7749 -62.47719 -0.3159465 436.3239 -58.27272 0.7934718 433.7396 -63.04347 4.789558 436.4271 -66.19663 0.29788 439.7661 -66.91339 0.488681 437.547 -62.72146 -0.194458 436.458 -58.27206 1.010135 436.3629 -66.96472 1.001346 439.8197 -66.96395 0.8964118 439.1365 -62.88972 0.713224 438.9804 -62.71837 1.417458 439.9725 -58.2695 0.201857 439.8159 -66.96234 0.2179931 436.3631 -66.96245 0.3194614 437.0433 -62.88846 -0.8052507 439.827 -58.03245 -0.783901 436.3151 -58.03535 1.995304 436.3131 -58.03524 2.016647 439.8289 -58.03245 -1.074273 440.1468 -58.03557 -0.6473313 435.6385 -58.03558 -0.4752092 435.0991 -58.03557 2.28426 440.1488 -58.03558 0.6182512 239.2496 -55.96993 0.6182513 239.7601 -58.85168 4.223632 240.1001 -58.65153 -2.338157 239.5453 -57.68231 1.653758 234.1785 -59.35836</float_array>
          <technique_common>
            <accessor source="#meshId2_name-mesh-positions-array" count="437" stride="3">
              <param name="X" type="float"/>
              <param name="Y" type="float"/>
              <param name="Z" type="float"/>
            </accessor>
          </technique_common>
        </source>
        <source id="meshId2_name-mesh-normals">
          <float_array id="meshId2_name-mesh-normals-array" count="1284">-0.5073148 -0.1700212 -0.8448222 -0.8880964 -0.2957825 -0.3518488 -0.7364766 -0.1504972 -0.6595096 -0.7341521 0.03308492 -0.6781786 -0.9568715 -0.02052867 -0.2897855 -0.9688559 0.087094 0.2318037 -0.5192655 0.01082342 -0.8545445 -0.6218582 -0.02281671 -0.7827975 -0.9212034 -0.1652964 -0.3522237 -0.9827726 -0.02289825 -0.1833953 -0.9934491 -0.01641851 -0.1130902 -0.8490304 -0.4439771 -0.286412 -0.8515508 -0.2964527 -0.4324082 -0.8660275 -0.4484744 -0.221059 -0.8448559 -0.5223792 -0.1154924 -0.1237969 0.01693838 -0.992163 -0.07830494 0.008496284 -0.9968934 -0.2190499 0.9746918 -0.04464387 -0.005746901 0.9999707 -0.005053758 -0.2507691 0.9676704 -0.02700066 -0.2103376 0.9765475 0.04596835 -0.02151507 0.9996669 0.01425802 -0.8769453 -0.2956178 -0.3789157 -0.07801109 0.05430072 0.9954727 -0.127362 0.05694186 0.9902204 -0.3439731 0.07160955 0.936245 -0.3243468 0.003624081 0.9459313 -0.3749921 0.01534092 0.9269012 -0.2946636 -0.02096927 0.955371 -0.2781493 -0.02904635 0.9600987 -0.062765 -0.04385846 0.9970642 0.03788757 -0.05165094 0.9979463 -0.0701825 -0.02045571 0.9973244 -0.02743774 -0.06792736 0.997313 -0.2823142 -0.03061246 0.9588335 -0.1044706 0.05806845 0.9928313 -0.284274 0.09463286 0.9540613 -0.002976477 0.07554668 0.9971379 0.9834439 -0.158362 0.08808827 0.9908335 -0.05877745 0.1216316 0.9524593 -0.07270061 0.2958647 0.2200455 0.9419851 -0.2534642 0.004272162 0.9602514 -0.2791043 0.1368083 0.9552627 -0.2622152 0.2877642 0.9409475 -0.1783527 0.009580016 -0.9997635 0.01952356 0.04609715 -0.9988731 0.01130318 0.08590161 -0.9963029 0.00123322 1.34973e-4 0.9999939 -0.003517866 1.47788e-4 0.9999964 -0.002724766 1.15826e-5 0.9999962 -0.002779126 5.68667e-4 0.9999987 -0.001537322 0.001082718 0.9999974 -0.002009272 0.001178383 0.9999974 -0.002003014 8.41658e-4 0.9999922 -0.003871738 3.59558e-4 0.9999912 -0.004185557 0.9233874 0.220179 0.3144471 0.7445284 0.6522737 -0.1421854 0.004134297 0.04544895 -0.9989581 -0.07249665 -0.04253005 -0.9964615 0.0160979 0.1361339 -0.9905596 0.001757144 -0.1460943 -0.9892691 0.2545809 0.8010064 0.5418279 0.1465247 0.8440276 0.5158951 0.1212152 0.8508183 0.5112878 0.2539697 0.7996733 0.5440791 -0.004202008 -0.002133131 0.999989 -0.003927767 -0.001735985 0.9999908 -0.004783511 0.001733005 0.9999871 -0.005150675 9.18901e-4 0.9999864 0.952929 0.2124434 0.2163197 0.9953025 -0.06446433 0.07223188 0.8737005 0.4828212 -0.05942404 0.8282391 0.5559291 -0.07044756 0.1830351 0.09705352 -0.9783041 0.01771855 0.9899522 -0.1402885 0.1529178 0.1553927 -0.9759454 -0.09250319 0.4296703 -0.8982353 0.1782408 0.1057059 -0.9782927 0.2496433 -0.1075912 -0.9623422 0.2123069 0.03243118 -0.9766648 0.7748972 -0.6000701 0.1986209 0.7748971 -0.6000701 0.198621 0.774897 -0.6000702 0.1986213 0.7749112 -0.6000493 0.1986294 0.7749115 -0.6000491 0.1986284 0.7749114 -0.6000492 0.1986288 0.9681903 -0.01002717 0.2500142 -0.3588098 0.02520954 0.9330703 0.9688578 -0.00822395 0.2474812 0.9907308 -0.1250057 0.05316275 0.9798777 0.001090764 0.1995959 0.9629396 -0.03767341 0.267073 0.9651851 -0.05021291 0.2567031 0.9705773 -0.03403109 0.2383728 0.9715564 -0.02412354 0.2355769 0.9707249 -0.01753938 0.2395528 0.2148258 0.9737798 0.0748524 0.20278 0.975496 0.08536958 0.147446 0.02075254 -0.9888524 0.2076212 -0.06367635 -0.9761346 0.1604981 0.001592814 -0.9870349 -0.3326148 0.05200427 0.9416279 -0.3043512 0.07728511 0.9494194 0.359467 -0.3622204 -0.8599883 -6.24621e-7 0 1 1.28399e-5 -9.14487e-6 1 0.05347704 -0.9971721 0.0528028 0.09809726 -0.9939729 0.04893779 0.1871919 -0.981642 0.0365836 7.98832e-4 0.04572558 -0.9989538 -0.01637005 -0.002374053 -0.9998633 -0.01153171 0.01098817 -0.9998732 -0.00775063 0.9999647 -0.003263533 -0.009530007 0.9999505 -0.002873599 -0.007470071 0.9999674 -0.003079414 0.1091477 0.1557872 -0.9817419 -2.03181e-6 -3.70394e-7 1 -5.20893e-7 -7.87181e-6 1 -0.01209682 0.9991856 0.03849786 -0.04600346 0.9987692 0.01854592 0.07499945 -0.4892821 -0.8688949 -6.16373e-5 0.0281586 -0.9996035 1.19368e-7 1.19911e-7 1 -1.88784e-7 -8.01502e-6 1 -0.02467608 -0.9996759 0.006274044 -3.46236e-5 -3.18597e-4 1 -0.007654666 0.05947375 0.9982006 -0.1296414 0.07152408 0.988978 -0.09218651 0.07439476 0.9929588 -0.9866784 0.09507906 0.1320064 -0.003078222 -0.9990968 0.04238063 -0.02920228 -0.9991165 0.03022718 -6.02084e-5 0.999996 -0.002854764 1.36103e-7 0.9999969 -0.002524673 0 1.70024e-7 1 -1.81088e-7 -1.26849e-4 1 0.007195651 0.9999684 -0.003373324 0.005092442 0.9999857 -0.001685321 0.01413369 0.9998543 -0.009577214 0.01477986 0.9995129 -0.02749007 0.01943957 0.9996358 -0.0187242 0.01402419 0.9996685 -0.02159452 0.1250975 0.04099297 -0.9912973 -0.137594 0.9549744 -0.2628533 -0.1150786 0.8596007 0.497839 -0.1429386 0.8531743 0.5016596 0.002077996 -0.004936933 0.9999858 -7.61405e-4 -0.002974569 0.9999953 -7.59652e-4 0.001220822 0.9999991 0.00106275 -4.98432e-5 0.9999995 0.001376748 -3.39217e-4 0.9999991 0.7226842 -0.1495959 -0.6747954 0.8920105 -0.3513883 -0.2843301 0.8800418 -0.2675262 -0.3923724 0.954783 0.1002354 0.2798972 0.9949789 0.03890341 -0.09221553 0.7390013 0.04757905 -0.6720218 0.9910877 0.06071037 0.1185726 0.9812242 -0.03714013 -0.1892612 0.59285 -0.01102793 -0.8052374 0.9517008 -0.03403091 -0.3051356 0.9288386 -0.1536982 -0.3370994 0.8604041 -0.4554419 -0.228643 0.8376792 -0.3189957 -0.4433231 0.8557106 -0.4305799 -0.2869851 0.8208771 -0.5499142 -0.1541277 0.08108866 -0.002109825 -0.9967048 0.1188012 0.008322179 -0.9928832 0.1617129 -0.03871995 -0.986078 0.2689526 0.9610649 -0.06339526 0.2247596 0.9720576 -0.06772953 0.2103459 0.976548 0.0459209 0.8769451 -0.2956177 -0.378916 0.1223564 0.05459105 0.9909838 0.1195776 0.06575304 0.9906451 0.07272768 0.05335003 0.995924 0.3405427 0.08136236 0.9367021 0.2946635 -0.02096927 0.955371 0.3708637 0.02292913 0.9284042 0.2728716 -0.01168638 0.9619795 0.2375205 -0.03618443 0.9707084 0.1118966 -0.007537543 0.9936913 0.9962785 -0.03024691 0.0807107 0.7241441 -0.2883402 0.6264785 0.04338103 0.05943387 0.9972892 0.2543762 0.06841033 0.9646828 0.1098511 0.04459512 0.9929471 -0.9834486 -0.1583325 0.08809059 -0.9524506 -0.07273906 0.2958831 -0.9908335 -0.05877667 0.1216323 -0.2281361 0.9403246 -0.2524751 -0.064754 -0.9975321 0.02714222 -0.02206379 -0.9985891 0.04830294 1.23601e-4 0.9999951 -0.003133058 -1.60867e-5 0.9999952 -0.003096103 -1.26081e-6 0.9999924 -0.003895223 -0.001141548 0.9999966 -0.002402424 -0.001058161 0.999997 -0.002246141 -6.28236e-4 0.9999982 -0.00178945 -3.59569e-4 0.9999912 -0.004186928 -8.41896e-4 0.9999921 -0.003873407 -0.7384795 0.5302833 0.4164707 -0.9233875 0.2201789 0.3144468 -0.02338093 0.1389616 -0.9900218 0.08740788 -0.04036909 -0.9953544 -0.006790459 0.04331427 -0.9990385 -0.9534982 0.2101302 0.216071 -0.7195632 0.4792586 -0.5025337 -0.3714054 0.9229192 -0.101383 0.0785017 -0.538259 -0.8391155 -0.7829407 0.06985992 -0.6181614 -0.0163899 0.227481 0.9736446 0.006515562 0.3067939 0.9517537 -0.212306 0.03243112 -0.9766649 -0.2678004 -0.1166957 -0.9563813 -0.1782399 0.1057058 -0.9782929 -0.7748965 -0.6000711 0.1986212 -0.7748965 -0.600071 0.1986209 -0.7748966 -0.600071 0.1986207 -0.7749108 -0.60005 0.1986287 -0.774911 -0.60005 0.1986283 -0.7749106 -0.6000501 0.1986293 -0.9681903 -0.01002722 0.2500143 0.3604948 0.01311719 0.932669 -0.9907309 -0.1250035 0.05316466 -0.9688578 -0.008224308 0.2474815 -0.9651853 -0.05021351 0.2567024 -0.9629408 -0.03767269 0.2670691 -0.9798765 0.00109899 0.1996016 -0.9705848 -0.03406327 0.2383379 -0.9707193 -0.01749944 0.2395786 -0.9715563 -0.02412354 0.2355769 -0.160498 0.001592457 -0.987035 -0.2076205 -0.06367653 -0.9761348 -0.15906 0.002485513 -0.9872658 0.3483335 0.04734122 0.9361745 0.3282561 0.08082902 0.9411242 -0.3594666 -0.3622203 -0.8599885 3.32028e-6 0 1 -1.22544e-5 -8.84988e-6 1 -0.2628961 0.8044314 0.5327062 -0.2624712 0.8027684 0.5354175 -0.004595398 -7.61126e-4 0.9999892 -0.004006326 -0.003194332 0.999987 -0.003838777 -0.003488123 0.9999865 0.005342364 0.9999849 -0.00134921 0.007413327 0.999972 -0.001082062 0.005640864 0.999983 -0.001502513 -0.109147 0.1557862 -0.9817421 7.46709e-7 0 1 0 1.80227e-7 1 4.62292e-7 -7.47704e-6 1 -0.08639091 -0.9958521 -0.02855396 3.5031e-5 -3.22739e-4 1 -0.289935 0.9402206 -0.1786702 0.1783424 0.07523947 0.9810877 -0.1250973 0.0409919 -0.9912974 -0.009618937 0.9970223 -0.07651144 -0.01436609 0.9973968 -0.07066196 -0.01538777 0.998279 -0.05659008 -0.003333687 0.9987481 -0.04991394 -0.9066495 0.1524204 0.3933891 -0.1168419 0.04887813 0.9919471 0.8943814 0.1523497 0.4205608 -0.001334846 -0.9997324 0.0230956 0 -0.9998493 0.01736611 0.0018 -0.711598 0.7025846 0.9991335 -0.04146152 0.003647744 0.9977172 -0.06124937 -0.02844214 0.9973908 -0.06933176 -0.02012133 0.02347719 -0.3425405 0.9392098 -0.002206206 -0.4676535 0.8839092 -0.001367211 -0.821683 0.5699431 0.9953982 -0.08550536 0.04326111 0.9999768 0.00643146 0.002267539 0.9999768 0.006093621 0.003029823 0.9999738 0.006573379 0.003010749 0.9999876 0.004974663 4.88313e-4 0.9999881 0.004869103 2.4974e-4 0.9999887 0.00477153 1.47824e-4 0.008289873 -0.8549056 0.5187175 -7.99193e-7 1 -9.60065e-7 7.37874e-7 1 -3.38085e-7 -0.9973332 -0.0676853 -0.02730071 -0.9942134 -0.1011622 0.03613829 -0.9960049 -0.06644725 -0.05965799 0 1 6.0695e-7 4.70224e-6 -0.9994723 0.03248322 -3.5909e-4 -0.9994931 0.03183448 0.002301812 -0.01807326 0.9998341 -7.06228e-4 -0.7052965 0.7089121 -0.9972481 -0.07148629 -0.01965123 -0.9999852 0.004693627 0.002771615 -0.9999828 0.004963099 0.003122508 -0.999983 0.005068838 0.002909123 -0.9999725 0.007425248 6.08156e-5 -0.9999718 0.007491052 5.34812e-4 -0.9999755 0.006998777 2.93978e-4 0 -0.0106644 0.9999432 0 1 3.02938e-7 0 1 0 0 1 0 -0.9687651 -0.03389763 0.2456526 -0.9651427 -0.05012375 0.2568801 -0.9645379 -0.04356467 0.2603246 -0.9641188 -0.03288513 0.2634266 -0.9641696 -0.03823179 0.2625173 0.9691209 -0.04903644 0.2416614 0.9636968 -0.04730105 0.2627755 0.9640483 -0.04848086 0.2612676 0.9641187 -0.03288459 0.263427 0.9641687 -0.03823727 0.2625197 -0.09170693 0.06802618 0.9934598 0.1290385 0.05581998 0.9900674 0.02347725 -0.3425401 0.9392099 -0.002206206 -0.4676528 0.8839095 -0.001408576 -0.8216708 0.5699607 0.997348 -0.03074747 -0.06596702 0.9913112 -0.1238154 0.04440569 0.9957967 -0.08491832 -0.03432089 -0.9965903 -0.0641427 -0.05189818 -0.9947736 -0.09563535 -0.0357716 -0.9948924 -0.09498733 -0.03415709 0.9999751 0.006422519 0.002945363 0.9999747 0.00608468 0.003707647 0.9999717 0.006564438 0.003688514 0.9999895 0.004569351 4.96276e-4 0.9999901 0.004463791 2.57698e-4 0.9999905 0.004366219 1.55782e-4 0.001225769 -0.01658838 0.9998617 0 -0.01265573 0.99992 1.82539e-4 -0.7078384 0.7063744 0 1 0 9.00742e-4 -0.7099629 0.7042386 -1.78317e-4 -0.9998168 0.01913845 0.008289694 -0.8548987 0.5187287 0 1 -1.17179e-5 -0.988418 -0.146891 0.03811836 1.67867e-4 -0.9994747 0.03241205 -6.43256e-5 -0.9994841 0.03211975 0.9953072 -0.09047812 -0.03431451 -0.9999853 0.004379391 0.003185689 -0.999983 0.004648864 0.003536581 -0.9999832 0.004754602 0.003323197 -0.9999725 0.007425189 6.08137e-5 -0.9999718 0.007490992 5.34811e-4 -0.9999755 0.006998658 2.93971e-4 0 -0.9998021 0.01989603 0 1 1.35396e-6 -2.16262e-7 1 7.4906e-7 0 1 0 0 1 6.35128e-7 -0.9687652 -0.03389865 0.2456518 -0.9651426 -0.05012363 0.2568805 -0.9645379 -0.04356533 0.2603244 -0.9641188 -0.03288507 0.2634268 -0.9641691 -0.03823488 0.2625187 0.9703311 -0.007577598 0.2416612 0.9648379 -0.006074786 0.2627754 0.9652394 -0.007238686 0.2612674 0.9646433 0.008346736 0.2634267 0.9649226 0.003004074 0.2625179 -0.8520965 -0.5218523 0.04002255 -0.5894944 -0.7566954 -0.2826808 -0.8538361 -0.1054423 -0.5097509 -0.529839 -0.8478383 -0.02099567 -0.6051707 -0.7929126 -0.07112085 -0.6326712 -0.7696833 -0.08552652 0.3649347 -0.3445482 0.8649331 -0.08232331 -0.5121186 0.8549605 -0.0238536 0.214098 0.976521 0.09283643 -0.6887052 0.7190735 0.09804064 -0.6082884 0.7876378 0.1037898 -0.5771599 0.8100088 0.4871699 -0.6547105 -0.5779443 0.6718165 -0.7267253 -0.1432931 0.8777056 -0.09674835 -0.469332 0.4370491 -0.8816189 -0.1781466 0.5071336 -0.8286027 -0.2371351 0.5288492 -0.8074781 -0.2613382 2.33757e-4 -0.9776549 0.2102165 -1.03544e-4 0.9775828 -0.2105516 0.03697872 -0.9479659 -0.316217 -2.42797e-7 -0.3003906 -0.9538163 0 -0.3298392 -0.9440371 -0.9994366 -0.005446672 -0.03311938 -0.9993699 -0.006315231 -0.03492915 0.08642542 0.9281523 0.3620277 0.9994357 -0.005381643 -0.03315937 0.9993603 -0.006689608 -0.03513544 -0.9995376 -0.003110051 -0.03024876 -0.9995386 -0.003173828 -0.03020948 0.9995411 -0.003112196 -0.0301336 0.9995395 -0.00318706 -0.0301792 0.9995612 0.02840638 -0.008395493 0.9137468 -0.4040558 0.04249298 0.9957692 -0.09011322 0.01798814 -0.9444711 0.3154749 0.09192407 -0.8740293 0.4726258 0.1126847 -0.9928905 0.1142567 -0.03337448 -0.9959271 -0.06594216 -0.06149023 -0.8763246 0.4696786 -0.107039 -0.4529265 0.1352736 -0.8812257 -0.9921363 -0.1013155 -0.07349061 -0.9967962 0.02553015 0.0757997 -0.5349964 0.8438488 0.04120898 -0.9943958 0.09767347 0.04045981 0.9999976 -8.96945e-4 -0.002077162 0.9999189 -0.009421944 -0.008571863 0.9999697 -0.005465447 -0.005557656 0.999999 -4.81458e-5 -0.001430511 -0.9996588 0.005096912 0.02562093 0.3266565 -0.9108548 0.2522683 0.7121636 -0.7006824 -0.04321312 0.9866661 -0.08972376 -0.1357927 -0.908386 0.4151142 -0.05015212 0.9035702 -0.4266799 -0.03879517 -0.158872 0.1847159 -0.9698659 0.7952247 0.5425011 0.2707589 0.5378157 0.756389 0.3723304 0.5997726 0.796567 0.0758562 -0.06960052 0.2783381 -0.9579581 0.1840211 0.4935992 -0.8499978 -0.09062027 0.6112229 -0.7862535 -0.7256228 0.5678303 0.3886392 -0.7218403 0.6893905 0.06072247 -0.5091392 0.8295645 0.2293473</float_array>
          <technique_common>
            <accessor source="#meshId2_name-mesh-normals-array" count="428" stride="3">
              <param name="X" type="float"/>
              <param name="Y" type="float"/>
              <param name="Z" type="float"/>
            </accessor>
          </technique_common>
        </source>
        <source id="meshId2_name-mesh-map-0">
          <float_array id="meshId2_name-mesh-map-0-array" count="1860">0.9660811 0.856427 0.9522956 0.9540504 0.9002006 0.7102335 0.8901683 0.02513706 0.8618289 0.5314695 0.845503 0.02461177 0.8618289 0.5314695 0.8901683 0.02513706 0.9036485 0.2852186 0.8970144 0.522732 0.9660811 0.856427 0.9002006 0.7102335 0.8618289 0.5314695 0.9002006 0.7102335 0.8000763 0.7275273 0.8000763 0.7275273 0.7955047 0.5719744 0.8618289 0.5314695 0.9002006 0.7102335 0.8618289 0.5314695 0.8970144 0.522732 0.9660811 0.856427 0.9616534 0.937299 0.9522956 0.9540504 0.8296002 0.9023851 0.9040525 0.8485706 0.9236088 0.9729744 0.9236088 0.9729744 0.8572017 0.9994814 0.8296002 0.9023851 0.9236088 0.9729744 0.9040525 0.8485706 0.9522956 0.9540504 0.9462216 0.01017141 0.9833785 0.005196213 0.9036485 0.2852186 0.9660811 0.856427 0.8970144 0.522732 0.9036485 0.2852186 0.5758079 0.1656553 0.5060085 0.07616186 0.595764 0.1291953 0.5060085 0.07616186 0.5978618 0.08735823 0.595764 0.1291953 0.5060085 0.07616186 0.5758079 0.1656553 0.5077463 0.1692767 0.8000763 0.7275273 0.9002006 0.7102335 0.9040525 0.8485706 0.9040525 0.8485706 0.813974 0.8279299 0.8000763 0.7275273 0.9002006 0.7102335 0.9522956 0.9540504 0.9040525 0.8485706 0.368234 0.02587127 0.4220227 0.2495686 0.4413552 0.4787243 0.4100263 0.6934666 0.4443418 0.6034991 0.435407 0.736504 0.4100263 0.6934666 0.435407 0.736504 0.413281 0.832966 0.413281 0.832966 0.3837235 0.8965374 0.4100263 0.6934666 0.3837235 0.8965374 0.2822484 0.9184309 0.3667414 0.7106264 0.3232457 0.9796878 0.2822484 0.9184309 0.3837235 0.8965374 0.4100263 0.6934666 0.3837235 0.8965374 0.394945 0.706425 0.9040525 0.8485706 0.8296002 0.9023851 0.813974 0.8279299 0.3784667 0.5737968 0.4066656 0.6047662 0.3231749 0.598685 0.6934686 0.3458384 0.69207 0.362056 0.680503 0.361756 0.6157577 0.6595 0.5305969 0.6565588 0.5665 0.6096015 0.5665 0.6096015 0.6061691 0.6120101 0.6157577 0.6595 0.4574194 0.6608996 0.4786151 0.7361711 0.4407564 0.7319376 0.7771623 0.04216873 0.7263626 0.05001765 0.7445461 0.03041583 0.6862237 0.02461165 0.7445461 0.03041583 0.7263626 0.05001765 0.7445461 0.03041583 0.775753 0.03068494 0.7771623 0.04216873 0.680503 0.361756 0.676881 0.378117 0.6292834 0.3828338 0.6160115 0.3333024 0.5653438 0.3057688 0.6095163 0.3177941 0.5653438 0.3057688 0.6160115 0.3333024 0.5260384 0.3343341 0.5802076 0.8796984 0.5409309 0.8858534 0.5381787 0.8737764 0.5381787 0.8737764 0.5773499 0.8677245 0.5802076 0.8796984 0.5463019 0.8982529 0.5451931 0.8943171 0.5826185 0.8810569 0.5826185 0.8810569 0.5835626 0.8850457 0.5463019 0.8982529 0.680503 0.361756 0.6292834 0.3828338 0.6187447 0.3766211 0.3837235 0.8965374 0.3667414 0.7106264 0.394945 0.706425 0.6299828 0.002363443 0.5971238 0.01197516 0.5960523 0.008493185 0.8150519 0.001108825 0.7345137 0.01236855 0.7673164 0.007765233 0.7345137 0.01236855 0.686365 0.008655607 0.7673164 0.007765233 0.7305146 0.05758345 0.7806513 0.05732649 0.761917 0.06358599 0.684097 0.682515 0.611035 0.683094 0.60938 0.671209 0.60938 0.671209 0.682392 0.670268 0.684097 0.682515 0.6934686 0.3458384 0.6187447 0.3766211 0.6227413 0.248767 0.4100263 0.6934666 0.4146161 0.6127569 0.4443418 0.6034991 0.6227413 0.248767 0.6970951 0.251286 0.6958684 0.3464058 0.6958684 0.3464058 0.6934686 0.3458384 0.6227413 0.248767 0.6849815 0.7299041 0.684466 0.7813406 0.6641306 0.7827087 0.6641306 0.7827087 0.610823 0.7844572 0.6849815 0.7299041 0.611035 0.683094 0.684097 0.682515 0.6849815 0.7299041 0.5960523 0.008493185 0.5971238 0.01197516 0.561269 0.01814758 0.561269 0.01814758 0.56071 0.01436215 0.5960523 0.008493185 0.7612567 0.08018314 0.7587661 0.1048053 0.751557 0.09333199 0.4152843 0.5522183 0.414276 0.478543 0.4413552 0.4787243 0.4152843 0.5522183 0.4413552 0.4787243 0.4443418 0.6034991 0.4443418 0.6034991 0.4146161 0.6127569 0.4152843 0.5522183 0.7806513 0.05732649 0.7781871 0.07724219 0.761917 0.06358599 0.6934686 0.3458384 0.680503 0.361756 0.6187447 0.3766211 0.7533644 0.105589 0.7496253 0.2222599 0.7119985 0.2345159 0.610823 0.7844572 0.611035 0.683094 0.6849815 0.7299041 0.5739022 0.7451202 0.581553 0.75485 0.5843062 0.855954 0.601458 0.5102251 0.5921898 0.4347103 0.620853 0.438397 0.5760943 0.07503336 0.5393382 0.06919509 0.5391908 0.06658625 0.593208 0.05265796 0.5561892 0.05896568 0.5882046 0.03330296 0.7612567 0.08018314 0.751557 0.09333199 0.7299679 0.08591723 0.7119985 0.2345159 0.7447735 0.09607964 0.7533644 0.105589 0.5255537 0.7410281 0.5739022 0.7451202 0.5843062 0.855954 0.9833785 0.005196213 0.9660811 0.856427 0.9036485 0.2852186 0.56071 0.01436215 0.561269 0.01814758 0.4976927 0.02147442 0.4976927 0.02147442 0.4953086 0.01689547 0.56071 0.01436215 0.5391908 0.06658625 0.7189151 0.06658732 0.6336613 0.07784515 0.6336613 0.07784515 0.5760943 0.07503336 0.5391908 0.06658625 0.7447735 0.09607964 0.7119985 0.2345159 0.679715 0.08986067 0.5843062 0.855954 0.4315927 0.855954 0.5255537 0.7410281 0.5921898 0.4347103 0.601458 0.5102251 0.4644363 0.5103577 0.5697761 0.863606 0.50795 0.869736 0.5843062 0.855954 0.3278989 0.02040553 0.4065079 0.4689621 0.379932 0.4666482 0.7955047 0.5719744 0.8053819 0.2362349 0.845503 0.02461177 0.9036485 0.2852186 0.8970144 0.522732 0.8618289 0.5314695 0.845503 0.02461177 0.8618289 0.5314695 0.7955047 0.5719744 0.4413552 0.4787243 0.414276 0.478543 0.368234 0.02587127 0.4065079 0.4689621 0.368234 0.02587127 0.414276 0.478543 0.3278989 0.02040553 0.368234 0.02587127 0.4065079 0.4689621 0.4644363 0.5103577 0.5277237 0.4316138 0.5921898 0.4347103 0.5451466 0.7372503 0.4786151 0.7361711 0.4574194 0.6608996 0.7263626 0.05001765 0.6597724 0.0508328 0.6862237 0.02461165 0.6498046 0.2342984 0.679715 0.08986067 0.7119985 0.2345159 0.50795 0.869736 0.4315927 0.855954 0.5843062 0.855954 0.4507009 0.05943971 0.4082998 0.03330397 0.5882046 0.03330296 0.5882046 0.03330296 0.5561892 0.05896568 0.4507009 0.05943971 0.6655867 0.08258455 0.7612567 0.08018314 0.7299679 0.08591723 0.4959447 0.6097394 0.5665 0.6096015 0.5305969 0.6565588 0.4756661 0.8733211 0.5381787 0.8737764 0.5409309 0.8858534 0.5409309 0.8858534 0.4726335 0.8853618 0.4756661 0.8733211 0.4768736 0.8962724 0.5451931 0.8943171 0.5463019 0.8982529 0.5463019 0.8982529 0.4757384 0.9002612 0.4768736 0.8962724 0.09073317 0.7103095 0.0386424 0.9540736 0.02949213 0.9381758 0.1456259 0.02415674 0.1220753 0.2140917 0.1000199 0.02515184 0.185567 0.237338 0.1220753 0.2140917 0.1456259 0.02415674 0.185567 0.237338 0.1956164 0.56759 0.1220753 0.2140917 0.09073317 0.7103095 0.02949213 0.9381758 0.09463828 0.479668 0.1290993 0.5315662 0.1956164 0.56759 0.1908397 0.7276014 0.1908397 0.7276014 0.09073317 0.7103095 0.1290993 0.5315662 0.09463828 0.479668 0.1290993 0.5315662 0.09073317 0.7103095 0.06732183 0.9729964 0.0868805 0.8486191 0.1613157 0.9024254 0.1613157 0.9024254 0.1337143 0.9994994 0.06732183 0.9729964 0.0386424 0.9540736 0.0868805 0.8486191 0.06732183 0.9729964 0.09463828 0.479668 0.007535457 0.005196213 0.04470485 0.01017677 0.03153747 0.7226831 0.007535457 0.005196213 0.09463828 0.479668 0.03153747 0.7226831 0.09463828 0.479668 0.02949213 0.9381758 0.416248 0.1291962 0.5060085 0.07616186 0.4363685 0.1656667 0.416248 0.1291962 0.4141501 0.08735823 0.5060085 0.07616186 0.1908397 0.7276014 0.1769419 0.8279849 0.0868805 0.8486191 0.0868805 0.8486191 0.09073317 0.7103095 0.1908397 0.7276014 0.09073317 0.7103095 0.0868805 0.8486191 0.0386424 0.9540736 0.2230734 0.2537527 0.2541558 0.03367292 0.2829585 0.02497553 0.2045014 0.4788442 0.2230734 0.2537527 0.2829585 0.02497553 0.210762 0.736666 0.2016491 0.603655 0.236084 0.6935902 0.233027 0.833097 0.210762 0.736666 0.236084 0.6935902 0.236084 0.6935902 0.2822484 0.9184309 0.233027 0.833097 0.2822484 0.9184309 0.2594514 0.7080826 0.3667414 0.7106264 0.236084 0.6935902 0.2594514 0.7080826 0.2822484 0.9184309 0.02949213 0.9381758 0.023979 0.9025739 0.03153747 0.7226831 0.1769419 0.8279849 0.1613157 0.9024254 0.0868805 0.8486191 0.255751 0.885901 0.233027 0.833097 0.2822484 0.9184309 0.3078894 0.5755219 0.2393342 0.6048787 0.2579948 0.5721042 0.6981517 0.4304555 0.685187 0.414538 0.696754 0.414238 0.4959447 0.6097394 0.5305969 0.6565588 0.4454343 0.6597141 0.6079937 0.7319376 0.5451466 0.7372503 0.5911061 0.6609 0.6279434 0.03041583 0.6597724 0.0508328 0.5953276 0.04216873 0.6597724 0.0508328 0.6279434 0.03041583 0.6862237 0.02461165 0.5953276 0.04216873 0.596736 0.03068494 0.6279434 0.03041583 0.6339673 0.3934592 0.681565 0.398176 0.685187 0.414538 0.4425397 0.3177931 0.484071 0.3058235 0.4360455 0.3333024 0.5260384 0.3343341 0.4360455 0.3333024 0.484071 0.3058235 0.484071 0.3058235 0.5653438 0.3057688 0.5260384 0.3343341 0.6234288 0.3996719 0.6339673 0.3934592 0.685187 0.414538 0.4227516 0.01085627 0.4953086 0.01689547 0.4976927 0.02147442 0.4976927 0.02147442 0.4259424 0.0151776 0.4227516 0.01085627 0.7189151 0.06658732 0.7185078 0.06924319 0.6336613 0.07784515 0.4227516 0.01085627 0.4259424 0.0151776 0.3755902 0.002361416 0.6328365 0.002813875 0.686365 0.008655607 0.6625679 0.008764684 0.7345137 0.01236855 0.6625679 0.008764684 0.686365 0.008655607 0.615501 0.822344 0.5967667 0.8160846 0.6469035 0.8163415 0.700972 0.540066 0.699317 0.55195 0.626255 0.551372 0.626255 0.551372 0.62796 0.539124 0.700972 0.540066 0.6274253 0.5275269 0.6234288 0.3996719 0.6981517 0.4304555 0.236084 0.6935902 0.2016491 0.603655 0.2313908 0.6128799 0.6274253 0.5275269 0.6981517 0.4304555 0.7005513 0.4298872 0.7005513 0.4298872 0.7017781 0.525007 0.6274253 0.5275269 0.6462209 0.6515657 0.625886 0.6501975 0.62537 0.5987605 0.62537 0.5987605 0.6995289 0.6533142 0.6462209 0.6515657 0.62537 0.5987605 0.626255 0.551372 0.699317 0.55195 0.596144 0.809937 0.588935 0.8214103 0.5864444 0.7967873 0.2306526 0.5523289 0.2045014 0.4788442 0.231585 0.478637 0.2016491 0.603655 0.2045014 0.4788442 0.2306526 0.5523289 0.2306526 0.5523289 0.2313908 0.6128799 0.2016491 0.603655 0.615501 0.822344 0.599231 0.8360001 0.5967667 0.8160846 0.6981517 0.4304555 0.6234288 0.3996719 0.685187 0.414538 0.6060782 0.1055889 0.6146693 0.09607964 0.6096715 0.2221831 0.6995289 0.6533142 0.62537 0.5987605 0.699317 0.55195 0.4315927 0.855954 0.434346 0.75485 0.4434677 0.7449516 0.4756661 0.8733211 0.4726335 0.8853618 0.431399 0.878927 0.431399 0.878927 0.434381 0.866982 0.4756661 0.8733211 0.4364243 0.8877984 0.4768736 0.8962724 0.4757384 0.9002612 0.4082998 0.03330397 0.4507009 0.05943971 0.403297 0.05265796 0.6177331 0.8025223 0.596144 0.809937 0.5864444 0.7967873 0.6498046 0.2342984 0.6096715 0.2221831 0.6146693 0.09607964 0.5060085 0.07616186 0.5077463 0.1692767 0.4363685 0.1656667 0.679715 0.08986067 0.6498046 0.2342984 0.6146693 0.09607964 0.4315927 0.855954 0.4434677 0.7449516 0.5255537 0.7410281 0.4454699 0.4385631 0.5277237 0.4316138 0.4644363 0.5103577 0.4574194 0.6608996 0.5911061 0.6609 0.5451466 0.7372503 0.4315927 0.855954 0.50795 0.869736 0.4461234 0.863606 0.4454343 0.6597141 0.454889 0.612201 0.4959447 0.6097394 0.1290993 0.5315662 0.09463828 0.479668 0.1220753 0.2140917 0.1956164 0.56759 0.1290993 0.5315662 0.1220753 0.2140917 0.2829585 0.02497553 0.231585 0.478637 0.2045014 0.4788442 0.231585 0.478637 0.2829585 0.02497553 0.24153 0.4688004 0.6177331 0.8025223 0.5864444 0.7967873 0.682114 0.7991895 0.596606 0.1842612 0.608299 0.2359417 0.4261859 0.2359358 0.4261859 0.2359358 0.4382523 0.1842496 0.596606 0.1842612 0.24153 0.4688004 0.2829585 0.02497553 0.379932 0.4666482 0.9462216 0.01017141 0.9036485 0.2852186 0.8901683 0.02513706 0.845503 0.02461177 0.8053819 0.2362349 0.808997 0.01817798 0.391324 0.03360599 0.4220227 0.2495686 0.368234 0.02587127 0.1000199 0.02515184 0.09463828 0.479668 0.04470485 0.01017677 0.1220753 0.2140917 0.09463828 0.479668 0.1000199 0.02515184 0.181972 0.01819896 0.185567 0.237338 0.1456259 0.02415674 0.3278989 0.02040553 0.379932 0.4666482 0.2829585 0.02497553 0.450134 0.520389 0.621112 0.520389 0.6211121 0.557157 0.6812175 0.8970874 0.66593 0.8641938 0.680326 0.824829 0.6073962 0.2899138 0.4350785 0.289896 0.6115493 0.2756481 0.6812175 0.8970874 0.6693244 0.8939384 0.66593 0.8641938 0.680326 0.824829 0.66593 0.8641938 0.6153489 0.8631095 0.6153489 0.8631095 0.6140631 0.824829 0.680326 0.824829 0.4316705 0.2753917 0.6115493 0.2756481 0.4350785 0.289896 0.4956735 0.4187099 0.4424136 0.4150171 0.444693 0.387762 0.612941 0.387762 0.6152954 0.4150112 0.586278 0.417919 0.713395 0.2787389 0.7100557 0.3083099 0.6984151 0.3116044 0.612941 0.387762 0.586278 0.417919 0.4956735 0.4187099 0.6115493 0.2756481 0.4316705 0.2753917 0.43714 0.2497079 0.43714 0.2497079 0.605463 0.2496989 0.6115493 0.2756481 0.620378 0.606217 0.450134 0.5574727 0.6211121 0.557157 0.6989971 0.239368 0.713395 0.2787389 0.6984151 0.3116044 0.713395 0.2787389 0.6989971 0.239368 0.765271 0.239368 0.765271 0.239368 0.763986 0.2776535 0.713395 0.2787389 0.620378 0.606217 0.450938 0.606217 0.450134 0.5574727 0.444693 0.387762 0.612941 0.387762 0.4956735 0.4187099 0.4489182 0.3475332 0.612941 0.347093 0.612941 0.387762 0.612941 0.387762 0.444693 0.387762 0.4489182 0.3475332 0.6211121 0.557157 0.450134 0.5574727 0.450134 0.520389 0.7496989 0.3234179 0.7171117 0.286512 0.7680917 0.2889616 0.7496989 0.3234179 0.7182289 0.3244755 0.7171117 0.286512 0.7680917 0.2889616 0.7680315 0.3058202 0.7496989 0.3234179 0.7173318 0.3749384 0.6989393 0.3404826 0.7499194 0.338033 0.7173318 0.3749384 0.7499194 0.338033 0.7488021 0.3759965 0.6989393 0.3404826 0.7173318 0.3749384 0.6989995 0.3573407 0.4146161 0.6127569 0.4066656 0.6047662 0.4060548 0.5653203 0.4060548 0.5653203 0.4152843 0.5522183 0.4146161 0.6127569 0.4066656 0.6047662 0.3784667 0.5737968 0.4060548 0.5653203 0.3231749 0.598685 0.3078894 0.5755219 0.3784667 0.5737968 0.3078894 0.5755219 0.3231749 0.598685 0.2393342 0.6048787 0.237347 0.564281 0.2579948 0.5721042 0.2393342 0.6048787 0.2313908 0.6128799 0.2306526 0.5523289 0.237347 0.564281 0.237347 0.564281 0.2393342 0.6048787 0.2313908 0.6128799 0.6073963 0.2899138 0.4350785 0.289896 0.6115494 0.2756481 0.681217 0.8970698 0.6693244 0.8939384 0.66593 0.8641939 0.6984148 0.3116211 0.698997 0.239368 0.7133949 0.2787389 0.680326 0.824829 0.66593 0.8641939 0.6153488 0.8631094 0.6153488 0.8631094 0.614063 0.824829 0.680326 0.824829 0.620378 0.606217 0.450938 0.606217 0.450134 0.5574799 0.5620301 0.4187099 0.444693 0.387762 0.444693 0.347093 0.621112 0.5572705 0.450134 0.5574799 0.621112 0.520389 0.4316705 0.2753917 0.6115494 0.2756481 0.4350785 0.289896 0.5620301 0.4187099 0.471425 0.417919 0.4424136 0.4150171 0.7133949 0.2787389 0.7100556 0.3083099 0.6984148 0.3116211 0.6115494 0.2756481 0.43714 0.2497079 0.605463 0.2496989 0.6115494 0.2756481 0.4316705 0.2753917 0.43714 0.2497079 0.620378 0.606217 0.450134 0.5574799 0.621112 0.5572705 0.66593 0.8641939 0.680326 0.824829 0.681217 0.8970698 0.7133949 0.2787389 0.698997 0.239368 0.765271 0.239368 0.765271 0.239368 0.7639861 0.2776535 0.7133949 0.2787389 0.450134 0.5574799 0.450134 0.520389 0.621112 0.520389 0.444693 0.387762 0.5620301 0.4187099 0.4424136 0.4150171 0.612941 0.387762 0.6152954 0.4150112 0.5620301 0.4187099 0.612941 0.387762 0.5620301 0.4187099 0.444693 0.347093 0.444693 0.347093 0.612941 0.347093 0.612941 0.387762 0.7496989 0.3234179 0.7171117 0.286512 0.7680918 0.2889616 0.7496989 0.3234179 0.7182289 0.3244755 0.7171117 0.286512 0.7680918 0.2889616 0.7680315 0.3058202 0.7496989 0.3234179 0.7173318 0.3749384 0.6989393 0.3404826 0.7499194 0.338033 0.7173318 0.3749384 0.7499194 0.338033 0.7488022 0.3759965 0.6989393 0.3404826 0.7173318 0.3749384 0.6989995 0.3573406 0.6128933 0.9470048 0.6347495 0.99344 0.6028564 0.9793823 0.6287988 0.9430573 0.6374029 0.9493934 0.6128933 0.9470048 0.6347495 0.99344 0.6374029 0.9493934 0.6424171 0.9857192 0.4199268 0.9384753 0.4449651 0.9833941 0.4120876 0.9714771 0.4355334 0.9334139 0.4445804 0.9391418 0.4199268 0.9384753 0.4449651 0.9833941 0.4445804 0.9391418 0.4521107 0.9751411 0.5147316 0.9417721 0.5412852 0.9857587 0.5080736 0.9750235 0.5301546 0.9361888 0.5393825 0.9416027 0.5147316 0.9417721 0.5412852 0.9857587 0.5393825 0.9416027 0.5481317 0.977278 0.7471052 0.7669577 0.7466967 0.7619349 0.7515478 0.7642377 0.7466787 0.7498592 0.7517216 0.7480034 0.7505947 0.7530953 0.7590528 0.8777579 0.7543232 0.8767017 0.756779 0.7887483 0.3201252 0.6942104 0.3210908 0.6713063 0.374518 0.638582 0.374518 0.638582 0.374518 0.657518 0.3201252 0.6942104 0.7768259 0.7936521 0.7816661 0.794299 0.7789154 0.888583 0.269407 0.638584 0.3210908 0.6713063 0.3201252 0.6942104 0.3201252 0.6942104 0.269407 0.657519 0.269407 0.638584 0.406135 0.64984 0.374518 0.657518 0.374518 0.638582 0.374518 0.638582 0.402153 0.631327 0.406135 0.64984 0.2417719 0.631329 0.269407 0.638584 0.269407 0.657519 0.269407 0.657519 0.237789 0.649841 0.2417719 0.631329 0.7468666 0.6908476 0.749396 0.669379 0.7568101 0.6909137 0.7663561 0.6952579 0.7793151 0.6952018 0.7758927 0.7167214 0.7758927 0.7167214 0.7659552 0.7167276 0.7663561 0.6952579 0.7573583 0.9816535 0.748989 0.979376 0.7274131 0.9800532 0.7274131 0.9800532 0.7598739 0.9216445 0.7573583 0.9816535 0.7635414 0.9883597 0.7573583 0.9816535 0.7598739 0.9216445 0.7274131 0.9800532 0.748989 0.979376 0.7486893 0.9905986 0.8156633 0.9274314 0.7915492 0.9780127 0.780789 0.9788535 0.780789 0.9788535 0.7793627 0.9219244 0.8156633 0.9274314 0.7274131 0.9800532 0.7233726 0.9216938 0.7598739 0.9216445 0.7582813 0.6798514 0.749396 0.669379 0.760388 0.669435 0.7582813 0.6798514 0.7568101 0.6909137 0.749396 0.669379 0.7772721 0.7055952 0.7758927 0.7167214 0.7793151 0.6952018 0.7464212 0.6805895 0.749396 0.669379 0.7468666 0.6908476 0.7654352 0.706486 0.7663561 0.6952579 0.7659552 0.7167276 0.7459642 0.7304539 0.7518569 0.717642 0.7608348 0.7293265 0.4120876 0.9714771 0.4081831 0.9405694 0.4199268 0.9384753 0.4081831 0.9405694 0.3756803 0.9811432 0.3746483 0.9562036 0.4120876 0.9714771 0.3756803 0.9811432 0.4081831 0.9405694 0.5080736 0.9750235 0.5030552 0.944275 0.5147316 0.9417721 0.5030552 0.944275 0.4720462 0.9860534 0.4700807 0.9611454 0.5080736 0.9750235 0.4720462 0.9860534 0.5030552 0.944275 0.6028564 0.9793823 0.6010153 0.9482784 0.6128933 0.9470048 0.6010153 0.9482784 0.5658938 0.9867221 0.5664461 0.9617126 0.6028564 0.9793823 0.5658938 0.9867221 0.6010153 0.9482784 0.6347495 0.99344 0.6128933 0.9470048 0.6374029 0.9493934 0.4449651 0.9833941 0.4199268 0.9384753 0.4445804 0.9391418 0.5412852 0.9857587 0.5147316 0.9417721 0.5393825 0.9416027</float_array>
          <technique_common>
            <accessor source="#meshId2_name-mesh-map-0-array" count="930" stride="2">
              <param name="S" type="float"/>
              <param name="T" type="float"/>
            </accessor>
          </technique_common>
        </source>
        <vertices id="meshId2_name-mesh-vertices">
          <input semantic="POSITION" source="#meshId2_name-mesh-positions"/>
        </vertices>
        <lines count="22">
          <input semantic="VERTEX" source="#meshId2_name-mesh-vertices" offset="0"/>
          <p>432 433 389 388 390 388 393 392 397 396 431 430 335 334 391 389 280 279 426 425 424 427 218 217 391 390 395 394 399 398 428 431 339 338 429 428 337 336 425 424 427 426 105 104</p>
        </lines>
        <triangles material="Hull-material" count="310">
          <input semantic="VERTEX" source="#meshId2_name-mesh-vertices" offset="0"/>
          <input semantic="NORMAL" source="#meshId2_name-mesh-normals" offset="1"/>
          <input semantic="TEXCOORD" source="#meshId2_name-mesh-map-0" offset="2" set="0"/>
          <p>3 0 0 10 1 1 4 2 2 1 3 3 12 4 4 5 5 5 12 4 6 1 3 7 0 6 8 2 7 9 3 0 10 4 2 11 12 4 12 4 2 13 8 8 14 8 8 15 13 9 16 12 4 17 4 2 18 12 4 19 2 7 20 3 0 21 14 10 22 10 1 23 11 11 24 6 12 25 15 13 26 15 13 27 16 14 28 11 11 29 15 13 30 6 12 31 10 1 32 244 15 33 17 16 34 0 6 35 3 0 36 2 7 37 0 6 38 22 17 39 19 18 40 20 19 41 19 18 42 18 20 43 20 19 44 19 18 45 22 17 46 21 21 47 8 8 48 4 2 49 6 12 50 6 12 51 9 22 52 8 8 53 4 2 54 10 1 55 6 12 56 24 23 57 23 24 58 25 25 59 28 26 60 26 27 61 27 28 62 28 26 63 27 28 64 31 29 65 31 29 66 30 30 67 28 26 68 30 30 69 34 31 70 35 32 71 29 33 72 34 31 73 30 30 74 28 26 75 30 30 76 42 34 77 6 12 78 11 11 79 9 22 80 45 35 81 43 36 82 44 37 83 46 38 84 47 39 85 48 40 86 52 41 87 49 42 88 50 43 89 50 43 90 51 44 91 52 41 92 61 45 93 59 46 94 60 47 95 64 48 96 62 49 97 63 50 98 65 51 99 63 52 100 62 53 101 63 54 102 66 55 103 64 55 104 48 40 105 69 56 106 70 57 107 71 58 108 73 59 109 72 60 110 73 59 111 71 58 112 74 61 113 78 62 114 75 63 115 76 64 116 76 64 117 77 65 118 78 62 119 82 66 120 79 67 121 80 68 122 80 68 123 81 69 124 82 66 125 48 40 126 70 57 127 83 70 128 30 30 129 35 32 130 42 34 131 96 71 132 97 72 133 98 73 134 99 74 135 101 75 136 100 76 137 101 75 138 213 77 139 100 76 140 104 78 141 102 79 142 103 80 143 112 81 144 109 82 145 110 83 146 110 84 147 111 85 148 112 86 149 46 38 150 83 70 151 107 87 152 28 26 153 114 88 154 26 27 155 107 87 156 108 89 157 106 90 158 106 90 159 46 38 160 107 87 161 115 91 162 55 92 163 56 93 164 56 93 165 88 94 166 115 91 167 116 95 168 117 96 169 115 91 170 98 73 171 97 72 172 84 97 173 84 97 174 85 98 175 98 73 176 94 99 177 119 100 178 120 101 179 118 102 180 121 103 181 25 25 182 118 102 183 25 25 184 26 27 185 26 27 186 114 88 187 118 102 188 102 79 189 113 104 190 103 80 191 46 38 192 48 40 193 83 70 194 41 105 195 68 105 196 67 105 197 88 94 198 116 95 199 115 91 200 38 106 201 39 106 202 86 106 203 54 107 204 53 108 205 123 109 206 91 110 207 90 111 208 89 112 209 124 113 210 93 114 211 92 115 212 94 99 213 120 101 214 95 116 215 67 117 216 40 117 217 41 117 218 36 118 219 38 118 220 86 118 221 17 16 222 3 0 223 0 6 224 85 98 225 84 97 226 125 119 227 125 119 228 126 120 229 85 98 230 89 112 231 205 121 232 127 122 233 127 122 234 91 110 235 89 112 236 40 123 237 67 123 238 128 123 239 86 124 240 129 124 241 36 124 242 53 108 243 54 107 244 179 125 245 87 126 246 130 126 247 86 126 248 32 127 249 37 128 250 33 129 251 13 9 252 7 130 253 5 5 254 0 6 255 2 7 256 12 4 257 5 5 258 12 4 259 13 9 260 25 25 261 121 103 262 24 23 263 37 128 264 24 23 265 121 103 266 32 127 267 24 23 268 37 128 269 179 125 270 131 131 271 53 108 272 184 132 273 59 46 274 61 45 275 62 133 276 187 134 277 65 134 278 132 135 279 128 135 280 67 135 281 130 136 282 129 136 283 86 136 284 206 137 285 207 138 286 92 139 287 92 140 288 93 141 289 206 142 290 133 143 291 94 99 292 95 116 293 177 144 294 50 43 295 49 42 296 198 145 297 76 64 298 75 63 299 75 63 300 197 146 301 198 145 302 200 147 303 79 148 304 82 148 305 82 149 306 199 150 307 200 151 308 138 152 309 139 153 310 136 154 311 141 155 312 140 156 313 134 157 314 144 158 315 140 156 316 141 155 317 144 158 318 148 159 319 140 156 320 138 152 321 136 154 322 135 160 323 142 161 324 148 159 325 146 162 326 146 162 327 138 152 328 142 161 329 135 160 330 142 161 331 138 152 332 149 163 333 143 164 334 147 165 335 147 165 336 150 166 337 149 163 338 139 153 339 143 164 340 149 163 341 135 160 342 151 167 343 247 168 344 137 169 345 151 167 346 135 160 347 137 169 348 135 160 349 136 154 350 153 170 351 19 18 352 154 171 353 153 170 354 152 172 355 19 18 356 146 162 357 145 173 358 143 164 359 143 164 360 138 152 361 146 162 362 138 152 363 143 164 364 139 153 365 156 174 366 157 175 367 155 176 368 158 177 369 156 174 370 155 176 371 161 178 372 159 179 373 160 180 374 162 181 375 161 178 376 160 180 377 160 180 378 34 31 379 162 181 380 34 31 381 169 182 382 35 32 383 160 180 384 169 182 385 34 31 386 136 154 387 237 183 388 137 169 389 145 173 390 147 165 391 143 164 392 163 184 393 162 181 394 34 31 395 170 185 396 172 186 397 171 187 398 173 188 399 174 189 400 175 190 401 177 144 402 49 42 403 176 191 404 186 192 405 184 132 406 185 193 407 189 194 408 187 195 409 188 196 410 187 197 411 189 198 412 65 199 413 188 200 414 190 200 415 189 201 416 192 202 417 193 203 418 174 189 419 195 204 420 196 205 421 194 206 422 74 61 423 194 206 424 196 205 425 196 205 426 73 59 427 74 61 428 201 207 429 192 202 430 174 189 431 210 208 432 126 120 433 125 119 434 125 119 435 211 209 436 210 208 437 205 121 438 204 210 439 127 122 440 210 208 441 211 209 442 209 211 443 212 212 444 213 77 445 214 213 446 101 75 447 214 213 448 213 77 449 216 214 450 215 215 451 217 216 452 225 217 453 222 218 454 223 219 455 223 220 456 224 221 457 225 222 458 220 223 459 201 207 460 173 188 461 160 180 462 159 179 463 227 224 464 220 223 465 173 188 466 219 225 467 219 225 468 221 226 469 220 223 470 180 227 471 181 228 472 228 229 473 228 229 474 203 230 475 180 227 476 228 229 477 229 231 478 230 232 479 234 233 480 233 234 481 232 235 482 231 236 483 158 177 484 235 237 485 159 179 486 158 177 487 231 236 488 231 236 489 227 224 490 159 179 491 216 214 492 226 238 493 215 215 494 173 188 495 201 207 496 174 189 497 168 239 498 167 239 499 191 239 500 203 230 501 228 229 502 230 232 503 129 240 504 166 240 505 165 240 506 198 145 507 197 146 508 238 241 509 238 241 510 239 242 511 198 145 512 240 243 513 200 244 514 199 245 515 207 246 516 206 247 517 241 248 518 208 249 519 234 233 520 232 235 521 132 250 522 191 250 523 167 250 524 19 18 525 21 21 526 154 171 527 128 251 528 132 251 529 167 251 530 129 252 531 165 252 532 36 252 533 178 253 534 131 131 535 179 125 536 61 45 537 185 193 538 184 132 539 129 254 540 130 254 541 202 254 542 176 191 543 242 255 544 177 144 545 142 161 546 135 160 547 140 156 548 148 159 549 142 161 550 140 156 551 155 176 552 235 237 553 158 177 554 235 237 555 155 176 556 164 256 557 208 249 558 232 235 559 243 257 560 58 258 561 57 259 562 182 260 563 182 260 564 183 261 565 58 258 566 164 256 567 155 176 568 33 129 569 244 15 570 0 6 571 1 3 572 5 5 573 7 130 574 245 262 575 246 263 576 23 24 577 24 23 578 134 157 579 135 160 580 247 168 581 140 156 582 135 160 583 134 157 584 248 264 585 144 158 586 141 155 587 32 127 588 33 129 589 155 176 590 251 265 591 250 266 592 269 267 593 253 268 594 254 269 595 252 270 596 257 271 597 255 272 598 256 273 599 253 268 600 262 274 601 254 269 602 252 275 603 254 276 604 276 277 605 276 278 606 264 279 607 252 280 608 271 281 609 256 273 610 255 272 611 261 282 612 272 282 613 267 282 614 249 283 615 274 283 616 260 283 617 263 284 618 259 285 619 258 286 620 249 287 621 260 287 622 261 287 623 256 273 624 271 281 625 275 288 626 275 288 627 273 289 628 256 273 629 265 290 630 270 291 631 269 267 632 278 292 633 263 284 634 258 286 635 263 293 636 278 294 637 277 295 638 277 296 639 266 297 640 263 298 641 265 290 642 281 299 643 270 291 644 267 300 645 249 300 646 261 300 647 280 301 648 268 301 649 249 301 650 249 302 651 267 302 652 280 302 653 269 267 654 270 291 655 251 265 656 284 303 657 286 304 658 282 305 659 284 303 660 285 306 661 286 304 662 282 305 663 283 307 664 284 303 665 289 308 666 287 309 667 291 310 668 289 308 669 291 310 670 290 311 671 287 309 672 289 308 673 288 312 674 114 88 675 43 36 676 122 313 677 122 313 678 118 102 679 114 88 680 43 36 681 45 35 682 122 313 683 44 37 684 170 185 685 45 35 686 170 185 687 44 37 688 172 186 689 236 314 690 171 187 691 172 186 692 227 224 693 231 236 694 236 314 695 236 314 696 172 186 697 227 224 698 299 315 699 297 316 700 298 317 701 302 318 702 303 319 703 296 320 704 300 321 705 304 322 706 305 323 707 295 324 708 296 325 709 319 326 710 319 327 711 306 328 712 295 329 713 321 330 714 307 331 715 294 332 716 292 333 717 309 333 718 322 333 719 311 334 720 294 332 721 293 335 722 312 336 723 298 317 724 297 316 725 292 337 726 314 337 727 313 337 728 305 323 729 301 338 730 300 321 731 298 317 732 318 339 733 316 340 734 298 317 735 312 336 736 318 339 737 321 330 738 294 332 739 311 334 740 296 320 741 295 341 742 302 318 743 305 342 744 304 343 745 320 344 746 320 345 747 308 346 748 305 347 749 294 332 750 323 348 751 293 335 752 309 349 753 292 349 754 313 349 755 315 350 756 317 350 757 292 350 758 315 351 759 292 351 760 322 351 761 322 352 762 310 352 763 315 352 764 326 353 765 328 354 766 324 355 767 326 353 768 327 356 769 328 354 770 324 355 771 325 357 772 326 353 773 331 358 774 329 359 775 333 360 776 331 358 777 333 360 778 332 361 779 329 359 780 331 358 781 330 362 782 345 363 783 348 364 784 347 365 785 346 366 786 350 367 787 345 363 788 348 364 789 350 367 790 349 368 791 342 369 792 357 370 793 341 371 794 356 372 795 359 373 796 342 369 797 357 370 798 359 373 799 358 374 800 353 375 801 364 376 802 352 377 803 363 378 804 366 379 805 353 375 806 364 376 807 366 379 808 365 380 809 369 381 810 371 381 811 372 381 812 368 382 813 370 382 814 367 382 815 373 383 816 377 383 817 378 383 818 375 384 819 374 385 820 379 386 821 379 386 822 380 387 823 375 384 824 376 388 825 400 388 826 381 388 827 383 389 828 374 385 829 375 384 830 375 384 831 382 390 832 383 389 833 385 391 834 380 387 835 379 386 836 379 386 837 384 392 838 385 391 839 387 393 840 383 389 841 382 390 842 382 390 843 386 394 844 387 393 845 417 395 846 403 396 847 416 397 848 410 398 849 420 399 850 421 400 851 421 400 852 422 401 853 410 398 854 412 402 855 413 403 856 408 404 857 408 404 858 401 405 859 412 402 860 411 406 861 412 402 862 401 405 863 408 404 864 413 403 865 409 407 866 405 408 867 407 409 868 406 410 869 406 410 870 404 411 871 405 408 872 408 404 873 402 412 874 401 405 875 414 413 876 403 396 877 415 414 878 414 413 879 416 397 880 403 396 881 419 415 882 421 400 883 420 399 884 418 416 885 403 396 886 417 395 887 423 417 888 410 398 889 422 401 890 434 418 891 436 418 892 435 418 893 341 371 894 343 419 895 342 369 896 343 419 897 344 420 898 340 421 899 341 371 900 344 420 901 343 419 902 352 377 903 354 422 904 353 375 905 354 422 906 355 423 907 351 424 908 352 377 909 355 423 910 354 422 911 347 365 912 361 425 913 345 363 914 361 425 915 362 426 916 360 427 917 347 365 918 362 426 919 361 425 920 348 364 921 345 363 922 350 367 923 357 370 924 342 369 925 359 373 926 364 376 927 353 375 928 366 379 929</p>
        </triangles>
      </mesh>
    </geometry>
  </library_geometries>
  <library_visual_scenes>
    <visual_scene id="Scene" name="Scene">
      <node id="Hull_LOW003" name="Hull_LOW003" type="NODE">
        <matrix sid="transform">1 0 0 22.74284 0 1 -4.37114e-8 -15.54065 0 4.37114e-8 1 57.5 0 0 0 1</matrix>
        <instance_geometry url="#meshId2_name-mesh" name="Hull_LOW003">
          <bind_material>
            <technique_common>
              <instance_material symbol="Hull-material" target="#Hull-material">
                <bind_vertex_input semantic="meshId2-tex0" input_semantic="TEXCOORD" input_set="0"/>
              </instance_material>
            </technique_common>
          </bind_material>
        </instance_geometry>
      </node>
    </visual_scene>
  </library_visual_scenes>
  <scene>
    <instance_visual_scene url="#Scene"/>
  </scene>
</COLLADA>